<mxfile host="app.diagrams.net" modified="2024-04-22T12:22:44.050Z" agent="Mozilla/5.0 (Macintosh; Intel Mac OS X 10.15; rv:124.0) Gecko/20100101 Firefox/124.0" etag="ydsJdswuZfGAFilXsZpa" version="23.1.5" type="github">
  <diagram name="Page-1" id="iQBbhHxZwQ4R9XLd4uDk">
    <mxGraphModel dx="1242" dy="793" grid="1" gridSize="10" guides="1" tooltips="1" connect="1" arrows="1" fold="1" page="1" pageScale="1" pageWidth="850" pageHeight="1100" math="0" shadow="0">
      <root>
        <mxCell id="0" />
        <mxCell id="1" parent="0" />
        <mxCell id="gN5womJw5X0KIZkcIUjg-1" value="" style="rounded=0;whiteSpace=wrap;html=1;" vertex="1" parent="1">
          <mxGeometry x="190" y="470" width="120" height="60" as="geometry" />
        </mxCell>
        <mxCell id="gN5womJw5X0KIZkcIUjg-2" value="" style="rounded=0;whiteSpace=wrap;html=1;" vertex="1" parent="1">
          <mxGeometry x="330" y="470" width="120" height="60" as="geometry" />
        </mxCell>
        <mxCell id="gN5womJw5X0KIZkcIUjg-3" value="" style="rounded=0;whiteSpace=wrap;html=1;" vertex="1" parent="1">
          <mxGeometry x="470" y="470" width="120" height="60" as="geometry" />
        </mxCell>
        <mxCell id="gN5womJw5X0KIZkcIUjg-4" value="" style="rounded=0;whiteSpace=wrap;html=1;" vertex="1" parent="1">
          <mxGeometry x="190" y="540" width="120" height="60" as="geometry" />
        </mxCell>
        <mxCell id="gN5womJw5X0KIZkcIUjg-5" value="" style="rounded=0;whiteSpace=wrap;html=1;" vertex="1" parent="1">
          <mxGeometry x="480" y="240" width="120" height="60" as="geometry" />
        </mxCell>
        <mxCell id="gN5womJw5X0KIZkcIUjg-6" value="" style="rounded=0;whiteSpace=wrap;html=1;" vertex="1" parent="1">
          <mxGeometry x="340" y="240" width="120" height="60" as="geometry" />
        </mxCell>
        <mxCell id="gN5womJw5X0KIZkcIUjg-7" value="" style="rounded=0;whiteSpace=wrap;html=1;" vertex="1" parent="1">
          <mxGeometry x="200" y="240" width="120" height="60" as="geometry" />
        </mxCell>
        <mxCell id="gN5womJw5X0KIZkcIUjg-8" value="" style="rounded=0;whiteSpace=wrap;html=1;" vertex="1" parent="1">
          <mxGeometry x="480" y="170" width="120" height="60" as="geometry" />
        </mxCell>
        <mxCell id="gN5womJw5X0KIZkcIUjg-9" value="" style="rounded=0;whiteSpace=wrap;html=1;" vertex="1" parent="1">
          <mxGeometry x="340" y="170" width="120" height="60" as="geometry" />
        </mxCell>
        <mxCell id="gN5womJw5X0KIZkcIUjg-10" value="" style="rounded=0;whiteSpace=wrap;html=1;" vertex="1" parent="1">
          <mxGeometry x="200" y="170" width="120" height="60" as="geometry" />
        </mxCell>
        <mxCell id="gN5womJw5X0KIZkcIUjg-11" value="" style="rounded=0;whiteSpace=wrap;html=1;" vertex="1" parent="1">
          <mxGeometry x="330" y="540" width="120" height="60" as="geometry" />
        </mxCell>
        <mxCell id="gN5womJw5X0KIZkcIUjg-12" value="" style="rounded=0;whiteSpace=wrap;html=1;" vertex="1" parent="1">
          <mxGeometry x="470" y="540" width="120" height="60" as="geometry" />
        </mxCell>
        <mxCell id="gN5womJw5X0KIZkcIUjg-13" value="" style="endArrow=none;html=1;rounded=0;strokeColor=#3399FF;strokeWidth=10;fontSize=5;" edge="1" parent="1">
          <mxGeometry width="50" height="50" relative="1" as="geometry">
            <mxPoint x="170" y="600" as="sourcePoint" />
            <mxPoint x="170" y="160" as="targetPoint" />
          </mxGeometry>
        </mxCell>
        <mxCell id="gN5womJw5X0KIZkcIUjg-14" value="Windows" style="text;html=1;align=center;verticalAlign=middle;resizable=0;points=[];autosize=1;strokeColor=none;fillColor=none;rotation=-90;fontSize=30;" vertex="1" parent="1">
          <mxGeometry x="60" y="350" width="150" height="50" as="geometry" />
        </mxCell>
        <mxCell id="gN5womJw5X0KIZkcIUjg-15" value="" style="endArrow=none;html=1;rounded=0;strokeColor=#666666;strokeWidth=10;fontSize=5;fillColor=#f5f5f5;" edge="1" parent="1">
          <mxGeometry width="50" height="50" relative="1" as="geometry">
            <mxPoint x="650" y="600" as="sourcePoint" />
            <mxPoint x="650" y="160" as="targetPoint" />
          </mxGeometry>
        </mxCell>
        <mxCell id="gN5womJw5X0KIZkcIUjg-16" value="Door" style="text;html=1;align=center;verticalAlign=middle;resizable=0;points=[];autosize=1;strokeColor=none;fillColor=none;rotation=90;fontSize=30;" vertex="1" parent="1">
          <mxGeometry x="640" y="340" width="90" height="50" as="geometry" />
        </mxCell>
        <mxCell id="gN5womJw5X0KIZkcIUjg-17" value="&lt;font style=&quot;font-size: 15px;&quot;&gt;Table 3&lt;br&gt;&lt;/font&gt;" style="text;html=1;align=center;verticalAlign=middle;resizable=0;points=[];autosize=1;strokeColor=none;fillColor=none;" vertex="1" parent="1">
          <mxGeometry x="215" y="555" width="70" height="30" as="geometry" />
        </mxCell>
        <mxCell id="gN5womJw5X0KIZkcIUjg-18" value="&lt;font style=&quot;font-size: 15px;&quot;&gt;Table 2&lt;br&gt;&lt;/font&gt;" style="text;html=1;align=center;verticalAlign=middle;resizable=0;points=[];autosize=1;strokeColor=none;fillColor=none;" vertex="1" parent="1">
          <mxGeometry x="355" y="555" width="70" height="30" as="geometry" />
        </mxCell>
        <mxCell id="gN5womJw5X0KIZkcIUjg-19" value="&lt;font style=&quot;font-size: 15px;&quot;&gt;Table 1&lt;br&gt;&lt;/font&gt;" style="text;html=1;align=center;verticalAlign=middle;resizable=0;points=[];autosize=1;strokeColor=none;fillColor=none;" vertex="1" parent="1">
          <mxGeometry x="495" y="555" width="70" height="30" as="geometry" />
        </mxCell>
        <mxCell id="gN5womJw5X0KIZkcIUjg-20" value="&lt;font style=&quot;font-size: 15px;&quot;&gt;Table 5&lt;br&gt;&lt;/font&gt;" style="text;html=1;align=center;verticalAlign=middle;resizable=0;points=[];autosize=1;strokeColor=none;fillColor=none;" vertex="1" parent="1">
          <mxGeometry x="355" y="485" width="70" height="30" as="geometry" />
        </mxCell>
        <mxCell id="gN5womJw5X0KIZkcIUjg-21" value="&lt;font style=&quot;font-size: 15px;&quot;&gt;Table 6&lt;br&gt;&lt;/font&gt;" style="text;html=1;align=center;verticalAlign=middle;resizable=0;points=[];autosize=1;strokeColor=none;fillColor=none;" vertex="1" parent="1">
          <mxGeometry x="215" y="485" width="70" height="30" as="geometry" />
        </mxCell>
        <mxCell id="gN5womJw5X0KIZkcIUjg-22" value="&lt;font style=&quot;font-size: 15px;&quot;&gt;Table 8&lt;br&gt;&lt;/font&gt;" style="text;html=1;align=center;verticalAlign=middle;resizable=0;points=[];autosize=1;strokeColor=none;fillColor=none;" vertex="1" parent="1">
          <mxGeometry x="365" y="255" width="70" height="30" as="geometry" />
        </mxCell>
        <mxCell id="gN5womJw5X0KIZkcIUjg-23" value="&lt;font style=&quot;font-size: 15px;&quot;&gt;Table 9&lt;br&gt;&lt;/font&gt;" style="text;html=1;align=center;verticalAlign=middle;resizable=0;points=[];autosize=1;strokeColor=none;fillColor=none;" vertex="1" parent="1">
          <mxGeometry x="225" y="255" width="70" height="30" as="geometry" />
        </mxCell>
        <mxCell id="gN5womJw5X0KIZkcIUjg-24" value="&lt;font style=&quot;font-size: 15px;&quot;&gt;Table 4&lt;br&gt;&lt;/font&gt;" style="text;html=1;align=center;verticalAlign=middle;resizable=0;points=[];autosize=1;strokeColor=none;fillColor=none;" vertex="1" parent="1">
          <mxGeometry x="495" y="485" width="70" height="30" as="geometry" />
        </mxCell>
        <mxCell id="gN5womJw5X0KIZkcIUjg-25" value="&lt;font style=&quot;font-size: 15px;&quot;&gt;Table 10&lt;br&gt;&lt;/font&gt;" style="text;html=1;align=center;verticalAlign=middle;resizable=0;points=[];autosize=1;strokeColor=none;fillColor=none;" vertex="1" parent="1">
          <mxGeometry x="500" y="185" width="80" height="30" as="geometry" />
        </mxCell>
        <mxCell id="gN5womJw5X0KIZkcIUjg-26" value="&lt;font style=&quot;font-size: 15px;&quot;&gt;Table 7&lt;br&gt;&lt;/font&gt;" style="text;html=1;align=center;verticalAlign=middle;resizable=0;points=[];autosize=1;strokeColor=none;fillColor=none;" vertex="1" parent="1">
          <mxGeometry x="505" y="255" width="70" height="30" as="geometry" />
        </mxCell>
        <mxCell id="gN5womJw5X0KIZkcIUjg-27" value="&lt;font style=&quot;font-size: 15px;&quot;&gt;Table 12&lt;br&gt;&lt;/font&gt;" style="text;html=1;align=center;verticalAlign=middle;resizable=0;points=[];autosize=1;strokeColor=none;fillColor=none;" vertex="1" parent="1">
          <mxGeometry x="220" y="185" width="80" height="30" as="geometry" />
        </mxCell>
        <mxCell id="gN5womJw5X0KIZkcIUjg-28" value="&lt;font style=&quot;font-size: 15px;&quot;&gt;Table 11&lt;br&gt;&lt;/font&gt;" style="text;html=1;align=center;verticalAlign=middle;resizable=0;points=[];autosize=1;strokeColor=none;fillColor=none;" vertex="1" parent="1">
          <mxGeometry x="360" y="185" width="80" height="30" as="geometry" />
        </mxCell>
      </root>
    </mxGraphModel>
  </diagram>
</mxfile>
